<svg width="1020" height="1020" viewBox="0 0 1020 1020" fill="none" xmlns="http://www.w3.org/2000/svg">
<g clip-path="url(#clip0_374_15)">
<rect x="24" y="15" width="974" height="990" fill="#050D27"/>
<path d="M294.519 428.168C283.959 428.168 276.087 424.616 270.903 417.512C265.911 410.216 262.647 401.288 261.111 390.728C260.151 383.048 258.615 375.368 256.503 367.688C254.583 360.008 251.415 353 246.999 346.664C242.775 340.136 236.727 334.952 228.855 331.112C221.175 327.272 211.095 325.352 198.615 325.352H186.231V386.696C186.231 396.104 186.903 402.92 188.247 407.144C189.591 411.176 192.087 413.864 195.735 415.208C199.383 416.36 204.471 417.32 210.999 418.088L216.759 418.664V425.864L174.135 425H173.847L131.223 425.864V418.664L136.983 418.088C143.703 417.32 148.791 416.36 152.247 415.208C155.895 413.864 158.391 411.176 159.735 407.144C161.079 402.92 161.751 396.104 161.751 386.696V258.824C161.751 249.224 161.079 242.408 159.735 238.376C158.391 234.344 155.895 231.752 152.247 230.6C148.791 229.256 143.703 228.2 136.983 227.432L131.223 226.856V219.656L173.847 220.52H214.167C227.223 220.52 239.319 222.056 250.455 225.128C261.591 228.008 270.519 233.096 277.239 240.392C284.151 247.688 287.607 257.864 287.607 270.92C287.607 282.44 285.015 291.848 279.831 299.144C274.839 306.248 268.119 311.72 259.671 315.56C251.415 319.208 242.391 321.8 232.599 323.336C246.807 324.296 258.327 329.192 267.159 338.024C276.183 346.664 281.943 359.432 284.439 376.328C286.167 387.08 288.279 395.528 290.775 401.672C293.463 407.624 296.343 411.848 299.415 414.344C302.679 416.648 305.943 417.8 309.207 417.8C311.319 417.8 313.335 417.416 315.255 416.648C317.367 415.88 319.191 415.112 320.727 414.344L322.743 421.544C319.671 423.08 315.543 424.52 310.359 425.864C305.175 427.4 299.895 428.168 294.519 428.168ZM214.743 228.008H186.231V317.576H210.423C228.855 317.576 241.719 313.832 249.015 306.344C256.503 298.856 260.247 287.624 260.247 272.648C260.247 258.44 256.887 247.496 250.167 239.816C243.447 231.944 231.639 228.008 214.743 228.008ZM434.933 428.168C420.533 428.168 407.189 425.576 394.901 420.392C382.805 415.208 372.245 407.912 363.221 398.504C354.389 389.096 347.477 377.96 342.485 365.096C337.493 352.04 334.997 337.736 334.997 322.184C334.997 306.632 337.493 292.424 342.485 279.56C347.477 266.696 354.389 255.56 363.221 246.152C372.245 236.744 382.805 229.448 394.901 224.264C407.189 219.08 420.533 216.488 434.933 216.488C449.333 216.488 462.581 219.08 474.677 224.264C486.965 229.448 497.525 236.744 506.357 246.152C515.381 255.56 522.389 266.696 527.381 279.56C532.373 292.424 534.869 306.632 534.869 322.184C534.869 337.736 532.373 352.04 527.381 365.096C522.389 377.96 515.381 389.096 506.357 398.504C497.525 407.912 486.965 415.208 474.677 420.392C462.581 425.576 449.333 428.168 434.933 428.168ZM434.933 419.528C451.637 419.528 465.173 415.592 475.541 407.72C485.909 399.848 493.493 388.712 498.293 374.312C503.093 359.72 505.493 342.344 505.493 322.184C505.493 302.024 503.093 284.744 498.293 270.344C493.493 255.752 485.909 244.616 475.541 236.936C465.173 229.064 451.637 225.128 434.933 225.128C418.421 225.128 404.885 229.064 394.325 236.936C383.957 244.616 376.373 255.752 371.573 270.344C366.773 284.744 364.373 302.024 364.373 322.184C364.373 342.344 366.773 359.72 371.573 374.312C376.373 388.712 383.957 399.848 394.325 407.72C404.885 415.592 418.421 419.528 434.933 419.528ZM641.82 428.168C634.14 428.168 627.132 426.92 620.796 424.424C614.652 421.928 609.084 419.432 604.092 416.936C599.868 414.632 596.316 412.904 593.436 411.752C590.748 410.6 588.348 410.024 586.236 410.024C583.548 410.024 581.628 411.176 580.476 413.48C579.516 415.592 578.748 417.992 578.172 420.68L577.308 425H570.108L571.548 391.016L570.684 353.864H577.884L581.052 367.4C583.164 375.848 586.908 384.104 592.284 392.168C597.852 400.232 604.764 406.856 613.02 412.04C621.468 417.224 631.068 419.816 641.82 419.816C647.772 419.816 653.436 418.568 658.812 416.072C664.38 413.384 668.892 409.352 672.348 403.976C675.996 398.6 677.82 391.592 677.82 382.952C677.82 370.088 673.596 359.72 665.148 351.848C656.892 343.976 645.372 336.488 630.588 329.384L618.492 323.624C604.092 316.712 593.34 309.128 586.236 300.872C579.324 292.424 575.868 281.672 575.868 268.616C575.868 258.44 578.364 249.416 583.356 241.544C588.348 233.672 595.164 227.528 603.804 223.112C612.636 218.696 622.716 216.488 634.044 216.488C641.916 216.488 648.54 217.544 653.916 219.656C659.292 221.768 663.516 223.592 666.588 225.128C671.58 227.624 675.516 228.872 678.396 228.872C681.468 228.872 683.292 225.896 683.868 219.944H691.068L690.204 247.592L690.78 275.528H683.58C682.428 264.776 679.452 255.656 674.652 248.168C669.852 240.488 663.996 234.632 657.084 230.6C650.364 226.568 643.164 224.552 635.484 224.552C624.156 224.552 614.94 227.816 607.836 234.344C600.924 240.872 597.468 249.224 597.468 259.4C597.468 270.344 601.02 278.984 608.124 285.32C615.228 291.464 624.444 297.32 635.772 302.888L647.58 308.648C658.14 313.832 667.164 319.208 674.652 324.776C682.332 330.152 688.188 336.488 692.22 343.784C696.444 351.08 698.556 360.2 698.556 371.144C698.556 382.472 695.964 392.456 690.78 401.096C685.788 409.736 678.972 416.456 670.332 421.256C661.884 425.864 652.38 428.168 641.82 428.168ZM725.786 425.864V418.664L731.546 418.088C738.266 417.32 743.354 416.36 746.81 415.208C750.458 413.864 752.954 411.176 754.298 407.144C755.642 402.92 756.314 396.104 756.314 386.696V258.824C756.314 249.224 755.642 242.408 754.298 238.376C752.954 234.344 750.458 231.752 746.81 230.6C743.354 229.256 738.266 228.2 731.546 227.432L725.786 226.856V219.656L768.41 220.52H880.154L880.73 241.256L883.034 267.752H876.122C874.778 259.112 872.954 252.2 870.65 247.016C868.538 241.832 865.466 237.992 861.434 235.496C857.402 232.808 851.93 231.08 845.018 230.312C838.298 229.352 829.562 228.872 818.81 228.872H780.794V313.256H813.05C816.89 313.256 820.25 312.392 823.13 310.664C826.01 308.744 828.314 305.288 830.042 300.296C831.962 295.304 833.114 288.104 833.498 278.696H840.698L839.834 317.288L840.698 359.912H833.498C833.498 345.896 831.77 336.008 828.314 330.248C824.858 324.296 819.77 321.32 813.05 321.32H780.794V394.184C780.794 403.4 782.81 409.544 786.842 412.616C790.874 415.496 798.362 416.936 809.306 416.936H836.09C847.226 416.936 855.866 415.688 862.01 413.192C868.346 410.696 873.05 405.704 876.122 398.216C879.194 390.536 881.306 379.304 882.458 364.52H889.658L887.642 399.08L886.778 425H768.41L725.786 425.864ZM117.02 797.864V790.664L122.78 790.088C129.5 789.32 134.588 788.36 138.044 787.208C141.692 785.864 144.188 783.176 145.532 779.144C146.876 774.92 147.548 768.104 147.548 758.696V630.824C147.548 621.224 146.876 614.408 145.532 610.376C144.188 606.344 141.692 603.752 138.044 602.6C134.588 601.256 129.5 600.2 122.78 599.432L117.02 598.856V591.656L159.644 592.52H194.78C199.964 592.52 206.012 592.712 212.924 593.096C219.836 593.48 226.748 594.44 233.66 595.976C240.764 597.32 247.292 599.72 253.244 603.176C259.388 606.44 264.284 611.048 267.932 617C271.772 622.76 273.692 630.248 273.692 639.464C273.692 648.296 271.58 655.88 267.356 662.216C263.324 668.552 258.14 673.832 251.804 678.056C245.66 682.088 239.228 685.256 232.508 687.56C241.724 688.328 250.364 690.44 258.428 693.896C266.492 697.352 273.02 702.728 278.012 710.024C283.196 717.128 285.788 726.728 285.788 738.824C285.788 749.96 283.58 759.368 279.164 767.048C274.94 774.536 269.18 780.488 261.884 784.904C254.588 789.128 246.524 792.2 237.692 794.12C228.86 796.04 219.932 797 210.908 797H159.644L117.02 797.864ZM203.42 600.584H170.876V685.544H209.18C221.084 685.544 230.3 681.704 236.828 674.024C243.548 666.344 246.908 654.824 246.908 639.464C246.908 628.52 245.18 620.264 241.724 614.696C238.268 609.128 233.276 605.384 226.748 603.464C220.412 601.544 212.636 600.584 203.42 600.584ZM194.78 788.936H210.908C220.508 788.936 228.86 787.592 235.964 784.904C243.26 782.216 248.828 777.32 252.668 770.216C256.7 762.92 258.716 752.552 258.716 739.112C258.716 726.056 256.508 716.264 252.092 709.736C247.676 703.208 240.956 698.888 231.932 696.776C222.908 694.664 211.484 693.608 197.66 693.608H170.876V759.848C170.876 771.368 172.796 779.144 176.636 783.176C180.668 787.016 186.716 788.936 194.78 788.936ZM314.458 797.864V790.664L320.218 790.088C326.938 789.32 332.026 788.36 335.482 787.208C339.13 786.056 341.626 783.368 342.97 779.144C344.314 774.92 344.986 768.104 344.986 758.696V630.824C344.986 621.224 344.314 614.408 342.97 610.376C341.626 606.152 339.13 603.464 335.482 602.312C332.026 600.968 326.938 600.008 320.218 599.432L314.458 598.856V591.656L357.658 592.52L394.81 591.656V598.28L390.202 598.856C384.634 599.432 380.314 600.296 377.242 601.448C374.362 602.6 372.346 605.096 371.194 608.936C370.042 612.584 369.466 618.728 369.466 627.368V747.464C369.466 756.872 369.946 764.648 370.906 770.792C372.058 776.936 375.034 781.448 379.834 784.328C384.634 787.208 392.41 788.648 403.162 788.648H424.762C441.466 788.648 453.466 784.232 460.762 775.4C468.25 766.376 472.666 753.416 474.01 736.52H480.346L477.466 797.864L357.082 797L314.458 797.864ZM578.716 799.88L503.26 622.184C500.764 616.232 497.596 611.432 493.756 607.784C490.108 603.944 484.732 601.352 477.628 600.008L471.867 598.856V591.656L514.78 592.52L557.692 591.656V598.856L549.052 599.72C543.1 600.296 538.3 601.832 534.652 604.328C531.196 606.632 529.468 610.184 529.468 614.984C529.468 618.44 530.524 622.76 532.636 627.944L590.812 765.896L646.684 627.656C647.836 624.968 648.604 622.568 648.988 620.456C649.564 618.152 649.852 616.136 649.852 614.408C649.852 609.8 648.316 606.44 645.244 604.328C642.172 602.024 637.948 600.584 632.572 600.008L622.492 598.856V591.656L662.812 592.52L691.612 591.656V598.568L684.988 600.008C677.692 601.544 672.028 604.52 667.996 608.936C663.964 613.352 660.316 619.688 657.052 627.944L587.932 799.88H578.716ZM698.926 797.864V790.664L704.686 790.088C711.406 789.32 716.494 788.36 719.95 787.208C723.598 785.864 726.094 783.176 727.438 779.144C728.974 774.92 729.742 768.104 729.742 758.696V630.824C729.742 621.224 729.07 614.408 727.726 610.376C726.382 606.344 723.886 603.752 720.238 602.6C716.782 601.256 711.694 600.2 704.974 599.432L699.214 598.856V591.656L741.838 592.52H782.446C808.366 592.52 830.254 595.976 848.11 602.888C866.158 609.8 879.886 620.744 889.294 635.72C898.702 650.504 903.406 669.896 903.406 693.896C903.406 710.984 900.526 725.96 894.766 738.824C889.006 751.688 881.134 762.44 871.15 771.08C861.166 779.72 849.742 786.248 836.878 790.664C824.206 794.888 810.862 797 796.846 797H741.55L698.926 797.864ZM773.518 788.36H797.998C821.422 788.36 840.238 780.776 854.446 765.608C868.654 750.248 875.758 726.536 875.758 694.472C875.758 674.888 872.974 658.184 867.406 644.36C862.03 630.344 853.102 619.688 840.622 612.392C828.334 604.904 811.726 601.16 790.798 601.16H754.51V754.952C754.51 760.52 754.894 765.896 755.662 771.08C756.43 776.072 758.158 780.2 760.846 783.464C763.534 786.728 767.758 788.36 773.518 788.36Z" fill="#7E643D"/>
<line x1="22.5852" y1="512.969" x2="998.415" y2="512.969" stroke="#7E643D" stroke-width="25"/>
</g>
<rect x="12" y="12" width="996" height="996" stroke="#7E643D" stroke-width="24"/>
<defs>
<clipPath id="clip0_374_15">
<rect x="24" y="24" width="972" height="972" fill="white"/>
</clipPath>
</defs>
</svg>
